<svg width="84" height="25" viewBox="0 0 84 25" fill="none" xmlns="http://www.w3.org/2000/svg">
<path d="M3.72266 19H0.96875V6.03906H3.72266V19ZM0.804688 2.60547C0.804688 2.11328 0.9375 1.73438 1.20312 1.46875C1.47656 1.20312 1.86328 1.07031 2.36328 1.07031C2.84766 1.07031 3.22266 1.20312 3.48828 1.46875C3.76172 1.73438 3.89844 2.11328 3.89844 2.60547C3.89844 3.07422 3.76172 3.44531 3.48828 3.71875C3.22266 3.98438 2.84766 4.11719 2.36328 4.11719C1.86328 4.11719 1.47656 3.98438 1.20312 3.71875C0.9375 3.44531 0.804688 3.07422 0.804688 2.60547ZM14.2461 19.2344C12.6055 19.2344 11.332 18.6445 10.4258 17.4648H10.2617C10.3711 18.5586 10.4258 19.2227 10.4258 19.457V24.7656H7.67188V6.03906H9.89844C9.96094 6.28125 10.0898 6.85938 10.2852 7.77344H10.4258C11.2852 6.46094 12.5742 5.80469 14.293 5.80469C15.9102 5.80469 17.168 6.39062 18.0664 7.5625C18.9727 8.73438 19.4258 10.3789 19.4258 12.4961C19.4258 14.6133 18.9648 16.2656 18.043 17.4531C17.1289 18.6406 15.8633 19.2344 14.2461 19.2344ZM13.5781 8.05469C12.4844 8.05469 11.6836 8.375 11.1758 9.01562C10.6758 9.65625 10.4258 10.6797 10.4258 12.0859V12.4961C10.4258 14.0742 10.6758 15.2188 11.1758 15.9297C11.6758 16.6328 12.4922 16.9844 13.625 16.9844C14.5781 16.9844 15.3125 16.5938 15.8281 15.8125C16.3438 15.0312 16.6016 13.918 16.6016 12.4727C16.6016 11.0195 16.3438 9.92188 15.8281 9.17969C15.3203 8.42969 14.5703 8.05469 13.5781 8.05469ZM34.1211 12.4961C34.1211 14.6133 33.5781 16.2656 32.4922 17.4531C31.4062 18.6406 29.8945 19.2344 27.957 19.2344C26.7461 19.2344 25.6758 18.9609 24.7461 18.4141C23.8164 17.8672 23.1016 17.082 22.6016 16.0586C22.1016 15.0352 21.8516 13.8477 21.8516 12.4961C21.8516 10.3945 22.3906 8.75391 23.4688 7.57422C24.5469 6.39453 26.0664 5.80469 28.0273 5.80469C29.9023 5.80469 31.3867 6.41016 32.4805 7.62109C33.5742 8.82422 34.1211 10.4492 34.1211 12.4961ZM24.6875 12.4961C24.6875 15.4883 25.793 16.9844 28.0039 16.9844C30.1914 16.9844 31.2852 15.4883 31.2852 12.4961C31.2852 9.53516 30.1836 8.05469 27.9805 8.05469C26.8242 8.05469 25.9844 8.4375 25.4609 9.20312C24.9453 9.96875 24.6875 11.0664 24.6875 12.4961ZM42.125 17.0078C42.7969 17.0078 43.4688 16.9023 44.1406 16.6914V18.7656C43.8359 18.8984 43.4414 19.0078 42.957 19.0938C42.4805 19.1875 41.9844 19.2344 41.4688 19.2344C38.8594 19.2344 37.5547 17.8594 37.5547 15.1094V8.125H35.7852V6.90625L37.6836 5.89844L38.6211 3.15625H40.3203V6.03906H44.0117V8.125H40.3203V15.0625C40.3203 15.7266 40.4844 16.2188 40.8125 16.5391C41.1484 16.8516 41.5859 17.0078 42.125 17.0078ZM52.4023 19.2344C50.3867 19.2344 48.8086 18.6484 47.668 17.4766C46.5352 16.2969 45.9688 14.6758 45.9688 12.6133C45.9688 10.4961 46.4961 8.83203 47.5508 7.62109C48.6055 6.41016 50.0547 5.80469 51.8984 5.80469C53.6094 5.80469 54.9609 6.32422 55.9531 7.36328C56.9453 8.40234 57.4414 9.83203 57.4414 11.6523V13.1406H48.8047C48.8438 14.3984 49.1836 15.3672 49.8242 16.0469C50.4648 16.7188 51.3672 17.0547 52.5312 17.0547C53.2969 17.0547 54.0078 16.9844 54.6641 16.8438C55.3281 16.6953 56.0391 16.4531 56.7969 16.1172V18.3555C56.125 18.6758 55.4453 18.9023 54.7578 19.0352C54.0703 19.168 53.2852 19.2344 52.4023 19.2344ZM51.8984 7.89062C51.0234 7.89062 50.3203 8.16797 49.7891 8.72266C49.2656 9.27734 48.9531 10.0859 48.8516 11.1484H54.7344C54.7188 10.0781 54.4609 9.26953 53.9609 8.72266C53.4609 8.16797 52.7734 7.89062 51.8984 7.89062ZM65.7969 19.2344C63.8359 19.2344 62.3438 18.6641 61.3203 17.5234C60.3047 16.375 59.7969 14.7305 59.7969 12.5898C59.7969 10.4102 60.3281 8.73438 61.3906 7.5625C62.4609 6.39062 64.0039 5.80469 66.0195 5.80469C67.3867 5.80469 68.6172 6.05859 69.7109 6.56641L68.8789 8.78125C67.7148 8.32812 66.7539 8.10156 65.9961 8.10156C63.7539 8.10156 62.6328 9.58984 62.6328 12.5664C62.6328 14.0195 62.9102 15.1133 63.4648 15.8477C64.0273 16.5742 64.8477 16.9375 65.9258 16.9375C67.1523 16.9375 68.3125 16.6328 69.4062 16.0234V18.4258C68.9141 18.7148 68.3867 18.9219 67.8242 19.0469C67.2695 19.1719 66.5938 19.2344 65.7969 19.2344ZM83.8555 19H81.0898V11.0312C81.0898 10.0312 80.8867 9.28516 80.4805 8.79297C80.082 8.30078 79.4453 8.05469 78.5703 8.05469C77.4141 8.05469 76.5625 8.40234 76.0156 9.09766C75.4766 9.78516 75.207 10.9414 75.207 12.5664V19H72.4531V0.765625H75.207V5.39453C75.207 6.13672 75.1602 6.92969 75.0664 7.77344H75.2422C75.6172 7.14844 76.1367 6.66406 76.8008 6.32031C77.4727 5.97656 78.2539 5.80469 79.1445 5.80469C82.2852 5.80469 83.8555 7.38672 83.8555 10.5508V19Z" fill="black" fill-opacity="0.85"/>
</svg>
