<svg id="Слой_1" data-name="Слой 1" xmlns="http://www.w3.org/2000/svg" viewBox="0 0 501.63 163.11"><defs><style>.cls-1{fill:#1f867e;}.cls-2{fill:#f79400;}</style></defs><title>Лого ОНЛАЙНИПОТЕКА (надпись сбоку)</title><path d="M201.49,183.3a12.77,12.77,0,0,1-4.83-.88,10.86,10.86,0,0,1-3.77-2.5,11.68,11.68,0,0,1-2.46-3.81,13.54,13.54,0,0,1,0-9.63,11.68,11.68,0,0,1,2.46-3.81,10.87,10.87,0,0,1,3.77-2.51,13.54,13.54,0,0,1,9.63,0,11,11,0,0,1,3.78,2.51,11.56,11.56,0,0,1,2.47,3.81,13.54,13.54,0,0,1,0,9.63,11.56,11.56,0,0,1-2.47,3.81,11,11,0,0,1-3.78,2.5A12.7,12.7,0,0,1,201.49,183.3Zm0-2.61a9.2,9.2,0,0,0,3.66-.72,9,9,0,0,0,2.92-2,8.72,8.72,0,0,0,1.9-3,10.77,10.77,0,0,0,0-7.43,8.69,8.69,0,0,0-1.9-3,8.82,8.82,0,0,0-2.92-2,9.93,9.93,0,0,0-7.35,0,8.48,8.48,0,0,0-2.89,2,9.31,9.31,0,0,0-1.91,3,10.33,10.33,0,0,0,0,7.43,9.34,9.34,0,0,0,1.91,3,8.65,8.65,0,0,0,2.89,2A9.27,9.27,0,0,0,201.49,180.69Z" transform="translate(-43.47 -65.04)"/><path d="M219.73,183a1.39,1.39,0,0,1-1.44-1.44V161a1.39,1.39,0,0,1,1.44-1.44,1.35,1.35,0,0,1,1,.41,1.43,1.43,0,0,1,.39,1v8.85H235.3V161a1.37,1.37,0,0,1,.42-1,1.42,1.42,0,0,1,1-.41,1.35,1.35,0,0,1,1,.41,1.43,1.43,0,0,1,.39,1v20.55a1.43,1.43,0,0,1-.39,1,1.35,1.35,0,0,1-1,.4,1.42,1.42,0,0,1-1-.4,1.37,1.37,0,0,1-.42-1v-9.15H221.14v9.15a1.43,1.43,0,0,1-.39,1A1.35,1.35,0,0,1,219.73,183Z" transform="translate(-43.47 -65.04)"/><path d="M243.16,183a1.33,1.33,0,0,1-1.21-.67,1.42,1.42,0,0,1-.07-1.4l8.58-20.4a1.37,1.37,0,0,1,1.35-1,1.34,1.34,0,0,1,1.35,1L261.73,181a1.41,1.41,0,0,1-.06,1.38,1.29,1.29,0,0,1-1.17.63,1.52,1.52,0,0,1-.79-.23,1.19,1.19,0,0,1-.53-.65l-7.77-19h1l-7.89,19a1.56,1.56,0,0,1-.57.65A1.39,1.39,0,0,1,243.16,183Z" transform="translate(-43.47 -65.04)"/><path d="M264.37,183a1.3,1.3,0,0,1-1.19-.67,1.42,1.42,0,0,1-.08-1.4l8.55-20.4a1.4,1.4,0,0,1,1.35-1,1.34,1.34,0,0,1,1.35,1L283,181a1.43,1.43,0,0,1-.11,1.38,1.32,1.32,0,0,1-1.18.63,1.52,1.52,0,0,1-.79-.23,1.34,1.34,0,0,1-.55-.65l-7.71-19h.87l-7.8,19a1.35,1.35,0,0,1-.55.65A1.47,1.47,0,0,1,264.37,183Zm1.71-5.31,1.11-2.37H279.1l1.08,2.37Z" transform="translate(-43.47 -65.04)"/><path d="M288,183a1.46,1.46,0,0,1-1-.4,1.35,1.35,0,0,1-.44-1V161a1.35,1.35,0,0,1,.44-1,1.47,1.47,0,0,1,1-.41,1.3,1.3,0,0,1,1,.41,1.47,1.47,0,0,1,.38,1v17.46L304,160.08a1.34,1.34,0,0,1,1.08-.51,1.39,1.39,0,0,1,1.44,1.44v20.55a1.39,1.39,0,0,1-1.44,1.44,1.36,1.36,0,0,1-1-.4,1.4,1.4,0,0,1-.41-1V164.13l-14.55,18.39a1.71,1.71,0,0,1-.51.35A1.46,1.46,0,0,1,288,183Zm8.55-25.59a6.94,6.94,0,0,1-2.71-.51,4.67,4.67,0,0,1-1.92-1.41,3.18,3.18,0,0,1-.7-2,1.38,1.38,0,0,1,.38-1,1.22,1.22,0,0,1,1.8,0,1.48,1.48,0,0,1,.34,1,1.5,1.5,0,0,0,.81,1.29,4.22,4.22,0,0,0,4,0,1.5,1.5,0,0,0,.81-1.29,1.41,1.41,0,0,1,.38-1,1.19,1.19,0,0,1,.89-.39,1.14,1.14,0,0,1,.92.4,1.46,1.46,0,0,1,.34,1,3.18,3.18,0,0,1-.71,2,4.69,4.69,0,0,1-1.91,1.41A6.91,6.91,0,0,1,296.53,157.41Z" transform="translate(-43.47 -65.04)"/><path d="M313.93,183a1.39,1.39,0,0,1-1.44-1.44V161a1.39,1.39,0,0,1,1.44-1.44,1.35,1.35,0,0,1,1,.41,1.43,1.43,0,0,1,.39,1v8.85H329.5V161a1.37,1.37,0,0,1,.42-1,1.42,1.42,0,0,1,1-.41,1.35,1.35,0,0,1,1,.41,1.43,1.43,0,0,1,.39,1v20.55a1.43,1.43,0,0,1-.39,1,1.35,1.35,0,0,1-1,.4,1.42,1.42,0,0,1-1-.4,1.37,1.37,0,0,1-.42-1v-9.15H315.34v9.15a1.43,1.43,0,0,1-.39,1A1.35,1.35,0,0,1,313.93,183Z" transform="translate(-43.47 -65.04)"/><path d="M339.82,183a1.47,1.47,0,0,1-1-.4,1.35,1.35,0,0,1-.43-1V161a1.35,1.35,0,0,1,.43-1,1.47,1.47,0,0,1,1-.41,1.3,1.3,0,0,1,1,.41,1.46,1.46,0,0,1,.38,1v17.46l14.61-18.39a1.34,1.34,0,0,1,1.08-.51,1.39,1.39,0,0,1,1.44,1.44v20.55a1.39,1.39,0,0,1-1.44,1.44,1.36,1.36,0,0,1-1-.4,1.4,1.4,0,0,1-.41-1V164.13l-14.55,18.39a1.72,1.72,0,0,1-.51.35A1.46,1.46,0,0,1,339.82,183Z" transform="translate(-43.47 -65.04)"/><path d="M365.77,183a1.39,1.39,0,0,1-1.44-1.44V161a1.39,1.39,0,0,1,1.44-1.44h16a1.35,1.35,0,0,1,1,.41,1.43,1.43,0,0,1,.39,1v20.55a1.43,1.43,0,0,1-.39,1,1.35,1.35,0,0,1-1,.4,1.39,1.39,0,0,1-1.44-1.44V162.15H367.18v19.41a1.43,1.43,0,0,1-.39,1A1.35,1.35,0,0,1,365.77,183Z" transform="translate(-43.47 -65.04)"/><path d="M400,183.3a12.78,12.78,0,0,1-4.83-.88,10.85,10.85,0,0,1-3.76-2.5,11.65,11.65,0,0,1-2.46-3.81,13.53,13.53,0,0,1,0-9.63,11.65,11.65,0,0,1,2.46-3.81,10.85,10.85,0,0,1,3.76-2.51,13.54,13.54,0,0,1,9.63,0,11,11,0,0,1,3.78,2.51,11.56,11.56,0,0,1,2.47,3.81,13.54,13.54,0,0,1,0,9.63,11.56,11.56,0,0,1-2.47,3.81,11,11,0,0,1-3.78,2.5A12.7,12.7,0,0,1,400,183.3Zm0-2.61a9.19,9.19,0,0,0,3.66-.72,9,9,0,0,0,2.92-2,8.72,8.72,0,0,0,1.91-3,10.77,10.77,0,0,0,0-7.43,8.69,8.69,0,0,0-1.91-3,8.82,8.82,0,0,0-2.92-2,9.93,9.93,0,0,0-7.35,0,8.48,8.48,0,0,0-2.89,2,9.31,9.31,0,0,0-1.91,3,10.34,10.34,0,0,0,0,7.43,9.34,9.34,0,0,0,1.91,3,8.65,8.65,0,0,0,2.89,2A9.27,9.27,0,0,0,400,180.69Z" transform="translate(-43.47 -65.04)"/><path d="M413.74,162.21a1.27,1.27,0,0,1-1-.37,1.44,1.44,0,0,1,0-1.9,1.3,1.3,0,0,1,1-.36H430a1.35,1.35,0,0,1,1,2.27,1.27,1.27,0,0,1-1,.38Zm8.1,20.79a1.35,1.35,0,0,1-1-.42,1.39,1.39,0,0,1-.42-1v-22h2.85v22a1.42,1.42,0,0,1-.4,1A1.38,1.38,0,0,1,421.84,183Z" transform="translate(-43.47 -65.04)"/><path d="M436.18,183a1.39,1.39,0,0,1-1.44-1.44V161a1.39,1.39,0,0,1,1.44-1.44h13.71a1.41,1.41,0,0,1,1,.38,1.29,1.29,0,0,1,.39,1,1.26,1.26,0,0,1-.39.95,1.41,1.41,0,0,1-1,.38h-12.3v7.62h8.88a1.41,1.41,0,0,1,1,.38,1.29,1.29,0,0,1,.39,1,1.25,1.25,0,0,1-.39.94,1.41,1.41,0,0,1-1,.38h-8.88v7.8h12.3a1.41,1.41,0,0,1,1,.38,1.26,1.26,0,0,1,.39.94,1.29,1.29,0,0,1-.39,1,1.41,1.41,0,0,1-1,.38Z" transform="translate(-43.47 -65.04)"/><path d="M457.09,183a1.39,1.39,0,0,1-1.44-1.44V161a1.39,1.39,0,0,1,1.44-1.44,1.35,1.35,0,0,1,1,.41,1.43,1.43,0,0,1,.39,1v8.85h4.86v2.55H458.5v9.15a1.43,1.43,0,0,1-.39,1A1.35,1.35,0,0,1,457.09,183Zm15.48-.36a1.49,1.49,0,0,1-2.07-.09l-9.81-11.49,9.12-11a1.3,1.3,0,0,1,1-.46,1.25,1.25,0,0,1,1,.4,1.3,1.3,0,0,1,.41.93,1.49,1.49,0,0,1-.41.93l-7.65,9.06,8.46,9.87a1.51,1.51,0,0,1,.41.94A1.28,1.28,0,0,1,472.57,182.64Z" transform="translate(-43.47 -65.04)"/><path d="M476.08,183a1.3,1.3,0,0,1-1.19-.67,1.42,1.42,0,0,1-.07-1.4l8.55-20.4a1.4,1.4,0,0,1,1.35-1,1.34,1.34,0,0,1,1.35,1L494.68,181a1.43,1.43,0,0,1-.1,1.38,1.32,1.32,0,0,1-1.19.63,1.52,1.52,0,0,1-.79-.23,1.35,1.35,0,0,1-.55-.65l-7.71-19h.87l-7.8,19a1.34,1.34,0,0,1-.55.65A1.47,1.47,0,0,1,476.08,183Zm1.71-5.31,1.11-2.37h11.91l1.08,2.37Z" transform="translate(-43.47 -65.04)"/><path d="M498.67,183.48a2,2,0,0,1-2-2,1.94,1.94,0,0,1,.58-1.42,1.87,1.87,0,0,1,1.37-.58,1.89,1.89,0,0,1,1.41.58,2,2,0,0,1,.57,1.42,2,2,0,0,1-2,2Z" transform="translate(-43.47 -65.04)"/><path d="M506.59,183a1.39,1.39,0,0,1-1.44-1.44V161a1.39,1.39,0,0,1,1.44-1.44h6a7.87,7.87,0,0,1,4,1,7,7,0,0,1,2.7,2.71,8.1,8.1,0,0,1,1,4,7.8,7.8,0,0,1-1,3.92,6.83,6.83,0,0,1-2.7,2.66,8.06,8.06,0,0,1-4,1H508v6.75a1.43,1.43,0,0,1-.39,1A1.35,1.35,0,0,1,506.59,183ZM508,172.14h4.59a5.11,5.11,0,0,0,2.52-.62,4.34,4.34,0,0,0,1.72-1.73,5.11,5.11,0,0,0,.62-2.52,5.39,5.39,0,0,0-.62-2.62,4.53,4.53,0,0,0-1.72-1.77,4.93,4.93,0,0,0-2.52-.64H508Z" transform="translate(-43.47 -65.04)"/><path d="M533.83,180.36a14.41,14.41,0,0,1-4.52-.67,11.08,11.08,0,0,1-3.55-1.89,8.58,8.58,0,0,1-2.33-2.88,8.1,8.1,0,0,1-.83-3.65,8,8,0,0,1,.83-3.63,8.63,8.63,0,0,1,2.33-2.87,11.08,11.08,0,0,1,3.55-1.89,15.49,15.49,0,0,1,9,0,11.23,11.23,0,0,1,3.58,1.89,8.57,8.57,0,0,1,2.34,2.87,8,8,0,0,1,.82,3.63,8.1,8.1,0,0,1-.82,3.65,8.52,8.52,0,0,1-2.34,2.88,11.23,11.23,0,0,1-3.58,1.89A14.55,14.55,0,0,1,533.83,180.36Zm0-2.37a10.66,10.66,0,0,0,4.38-.86,7.38,7.38,0,0,0,3-2.37,5.76,5.76,0,0,0,1.11-3.5,5.69,5.69,0,0,0-1.11-3.48,7.43,7.43,0,0,0-3-2.35,10.67,10.67,0,0,0-4.38-.85,10.56,10.56,0,0,0-4.37.85,7.33,7.33,0,0,0-3,2.35,5.74,5.74,0,0,0-1.09,3.48,5.81,5.81,0,0,0,1.09,3.5,7.28,7.28,0,0,0,3,2.37A10.55,10.55,0,0,0,533.83,178Zm0,5a1.39,1.39,0,0,1-1.44-1.44v-1.8l.12-1.17V164l-.12-.87V161a1.39,1.39,0,0,1,1.44-1.44,1.35,1.35,0,0,1,1,.41,1.43,1.43,0,0,1,.39,1v2.1l-.12.87v14.64l.12.93v2a1.43,1.43,0,0,1-.39,1A1.35,1.35,0,0,1,533.86,183Z" transform="translate(-43.47 -65.04)"/><circle class="cls-1" cx="57.1" cy="8.21" r="8.21"/><circle class="cls-1" cx="57.09" cy="32.64" r="8.21"/><circle class="cls-1" cx="81.56" cy="32.63" r="8.21"/><circle class="cls-1" cx="32.65" cy="32.63" r="8.21"/><circle class="cls-1" cx="32.64" cy="57.1" r="8.21"/><circle class="cls-1" cx="32.65" cy="81.57" r="8.21"/><circle class="cls-1" cx="32.65" cy="106.02" r="8.21"/><circle class="cls-1" cx="106.03" cy="106.02" r="8.21"/><circle class="cls-1" cx="81.57" cy="130.47" r="8.21"/><circle class="cls-1" cx="106.03" cy="130.46" r="8.21"/><circle class="cls-1" cx="106.03" cy="154.91" r="8.21"/><circle class="cls-1" cx="81.55" cy="154.9" r="8.21"/><circle class="cls-1" cx="57.1" cy="154.89" r="8.21"/><circle class="cls-1" cx="8.23" cy="154.89" r="8.21"/><circle class="cls-1" cx="57.1" cy="81.57" r="8.21"/><circle class="cls-1" cx="8.23" cy="81.57" r="8.21"/><circle class="cls-1" cx="8.21" cy="57.11" r="8.21"/><circle class="cls-1" cx="57.1" cy="57.11" r="8.21"/><circle class="cls-1" cx="81.57" cy="57.11" r="8.21"/><circle class="cls-2" cx="106.02" cy="57.1" r="8.21"/><circle class="cls-2" cx="106.02" cy="81.53" r="8.21"/><rect class="cls-2" x="97.82" y="56.93" width="16.41" height="24.81" rx="0.35" ry="0.35"/><circle class="cls-2" cx="81.57" cy="81.57" r="8.21"/><circle class="cls-2" cx="81.57" cy="105.99" r="8.21"/><rect class="cls-2" x="73.36" y="81.4" width="16.41" height="24.81" rx="0.35" ry="0.35"/><circle class="cls-2" cx="57.1" cy="106.01" r="8.21"/><circle class="cls-2" cx="57.1" cy="130.43" r="8.21"/><rect class="cls-2" x="48.89" y="105.84" width="16.41" height="24.81" rx="0.35" ry="0.35"/><circle class="cls-2" cx="8.21" cy="106.01" r="8.21"/><circle class="cls-2" cx="8.21" cy="130.44" r="8.21"/><rect class="cls-2" y="105.84" width="16.41" height="24.81" rx="0.35" ry="0.35"/><circle class="cls-2" cx="32.66" cy="130.47" r="8.21"/><circle class="cls-2" cx="32.66" cy="154.89" r="8.21"/><rect class="cls-2" x="24.45" y="130.3" width="16.41" height="24.81" rx="0.35" ry="0.35"/></svg>
