<svg width="21" height="21" viewBox="0 0 21 21" fill="none" xmlns="http://www.w3.org/2000/svg">
<path d="M15.1597 15.9583L18.988 12.2627C19.3371 11.9255 19.3376 11.35 18.988 11.0123L15.1597 7.31635C14.6368 6.81137 13.7812 7.19635 13.7812 7.94151V10.2156H4.48438V7.23054C4.48438 7.11741 4.44117 7.00891 4.36423 6.92893L2.45017 4.9383C2.19181 4.66957 1.75 4.85989 1.75 5.23992V12.2062C1.75 12.6774 2.11726 13.0594 2.57031 13.0594L13.7812 13.0594V15.3332C13.7812 16.0753 14.6347 16.4654 15.1597 15.9583Z" fill="white"/>
<mask id="mask0" mask-type="alpha" maskUnits="userSpaceOnUse" x="1" y="4" width="19" height="13">
<path d="M15.1597 15.9583L18.988 12.2627C19.3371 11.9255 19.3376 11.35 18.988 11.0123L15.1597 7.31635C14.6368 6.81137 13.7812 7.19635 13.7812 7.94151V10.2156H4.48438V7.23054C4.48438 7.11741 4.44117 7.00891 4.36423 6.92893L2.45017 4.9383C2.19181 4.66957 1.75 4.85989 1.75 5.23992V12.2062C1.75 12.6774 2.11726 13.0594 2.57031 13.0594L13.7812 13.0594V15.3332C13.7812 16.0753 14.6347 16.4654 15.1597 15.9583Z" fill="white"/>
</mask>
<g mask="url(#mask0)">
<rect x="21" width="21" height="21" transform="rotate(90 21 0)" fill="transparent"/>
</g>
</svg>
