<svg width="18" height="20" viewBox="0 0 18 20" xmlns="http://www.w3.org/2000/svg">
<path fill-rule="evenodd" clip-rule="evenodd" d="M0 18.125V1.875C0 0.839453 0.863438 0 1.92857 0H16.0714C17.1366 0 18 0.839453 18 1.875V18.125C18 19.1605 17.1366 20 16.0714 20H1.92857C0.863438 20 0 19.1605 0 18.125ZM15.4286 7.03125V2.96875C15.4286 2.70988 15.2127 2.5 14.9464 2.5H3.05357C2.78731 2.5 2.57143 2.70988 2.57143 2.96875V7.03125C2.57143 7.29012 2.78731 7.5 3.05357 7.5H14.9464C15.2127 7.5 15.4286 7.29012 15.4286 7.03125ZM5.14286 10.4688V12.0312C5.14286 12.2901 4.92698 12.5 4.66071 12.5H3.05357C2.78731 12.5 2.57143 12.2901 2.57143 12.0312V10.4688C2.57143 10.2099 2.78731 10 3.05357 10H4.66071C4.92698 10 5.14286 10.2099 5.14286 10.4688ZM15.4286 17.0312V10.4688C15.4286 10.2099 15.2127 10 14.9464 10H13.3393C13.073 10 12.8571 10.2099 12.8571 10.4688V17.0312C12.8571 17.2901 13.073 17.5 13.3393 17.5H14.9464C15.2127 17.5 15.4286 17.2901 15.4286 17.0312ZM5.14286 15.4688V17.0312C5.14286 17.2901 4.92698 17.5 4.66071 17.5H3.05357C2.78731 17.5 2.57143 17.2901 2.57143 17.0312V15.4688C2.57143 15.2099 2.78731 15 3.05357 15H4.66071C4.92698 15 5.14286 15.2099 5.14286 15.4688ZM10.2857 12.0312V10.4688C10.2857 10.2099 10.0698 10 9.80357 10H8.19643C7.93017 10 7.71429 10.2099 7.71429 10.4688V12.0312C7.71429 12.2901 7.93017 12.5 8.19643 12.5H9.80357C10.0698 12.5 10.2857 12.2901 10.2857 12.0312ZM10.2857 15.4688V17.0312C10.2857 17.2901 10.0698 17.5 9.80357 17.5H8.19643C7.93017 17.5 7.71429 17.2901 7.71429 17.0312V15.4688C7.71429 15.2099 7.93017 15 8.19643 15H9.80357C10.0698 15 10.2857 15.2099 10.2857 15.4688Z"/>
</svg>
