<svg width="21" height="20" viewBox="0 0 21 20" xmlns="http://www.w3.org/2000/svg">
<path fill-rule="evenodd" clip-rule="evenodd" d="M10.5 0.3125C5.14973 0.3125 0.8125 4.64973 0.8125 10C0.8125 15.3503 5.14973 19.6875 10.5 19.6875C15.8503 19.6875 20.1875 15.3503 20.1875 10C20.1875 4.64973 15.8503 0.3125 10.5 0.3125ZM10.5 2.1875C14.8177 2.1875 18.3125 5.68168 18.3125 10C18.3125 14.3177 14.8183 17.8125 10.5 17.8125C6.18234 17.8125 2.6875 14.3183 2.6875 10C2.6875 5.68234 6.18168 2.1875 10.5 2.1875ZM15.0964 6.38863L15.9767 7.27605C16.159 7.45984 16.1579 7.75664 15.9741 7.93898L9.23234 14.6266C9.04855 14.809 8.75176 14.8078 8.56945 14.624L5.02332 11.0491C4.84098 10.8653 4.84219 10.5685 5.02598 10.3862L5.91344 9.5059C6.09723 9.32359 6.39402 9.3248 6.57633 9.50859L8.91195 11.8632L14.4335 6.38598C14.6173 6.20363 14.9141 6.20484 15.0964 6.38863Z" />
</svg>
