<svg width="15" height="11" viewBox="0 0 15 11" xmlns="http://www.w3.org/2000/svg">
<path d="M5.22837 10.5745L0.624205 5.97037C0.347596 5.69376 0.347596 5.24527 0.624205 4.96864L1.62592 3.9669C1.90253 3.69026 2.35104 3.69026 2.62765 3.9669L5.72924 7.06846L12.3725 0.425231C12.6491 0.148621 13.0976 0.148621 13.3742 0.425231L14.3759 1.42697C14.6526 1.70358 14.6526 2.15207 14.3759 2.42871L6.23011 10.5746C5.95347 10.8512 5.50498 10.8512 5.22837 10.5745Z"/>
<mask id="mask0" mask-type="alpha" maskUnits="userSpaceOnUse" x="0" y="0" width="15" height="11">
<path d="M5.22837 10.5745L0.624205 5.97037C0.347596 5.69376 0.347596 5.24527 0.624205 4.96864L1.62592 3.9669C1.90253 3.69026 2.35104 3.69026 2.62765 3.9669L5.72924 7.06846L12.3725 0.425231C12.6491 0.148621 13.0976 0.148621 13.3742 0.425231L14.3759 1.42697C14.6526 1.70358 14.6526 2.15207 14.3759 2.42871L6.23011 10.5746C5.95347 10.8512 5.50498 10.8512 5.22837 10.5745Z" fill="white"/>
</mask>
<g mask="url(#mask0)">
</g>
</svg>
