<svg width="14" height="16" viewBox="0 0 14 16" xmlns="http://www.w3.org/2000/svg">
<path fill-rule="evenodd" clip-rule="evenodd" d="M9.89286 3.54688V0.5H4.83036C4.43093 0.5 4.10714 0.814795 4.10714 1.20312V11.9844C4.10714 12.3727 4.43093 12.6875 4.83036 12.6875H13.0268C13.4262 12.6875 13.75 12.3727 13.75 11.9844V4.25H10.6161C10.2183 4.25 9.89286 3.93359 9.89286 3.54688ZM9.89286 13.625V14.7969C9.89286 15.1852 9.56907 15.5 9.16964 15.5H0.973214C0.573789 15.5 0.25 15.1852 0.25 14.7969V4.01562C0.25 3.6273 0.573789 3.3125 0.973214 3.3125H3.14286V11.9844C3.14286 12.889 3.89985 13.625 4.83036 13.625H9.89286ZM11.5511 0.705928L13.5382 2.63782C13.6738 2.76968 13.75 2.94852 13.75 3.13499V3.3125H10.8571V0.5H11.0397C11.2315 0.5 11.4155 0.574075 11.5511 0.705928Z" />
</svg>
