<svg width="512" height="512" viewBox="0 0 512 512" fill="none" xmlns="http://www.w3.org/2000/svg">
<path d="M14.972 497.019C24.2187 506.268 36.3346 510.89 48.4527 510.89C60.5708 510.89 72.6889 506.266 81.9333 497.019L255.995 322.958L430.058 497.019C439.303 506.268 451.421 510.89 463.539 510.89C475.657 510.89 487.773 506.266 497.019 497.019C515.511 478.532 515.511 448.551 497.019 430.06L322.954 255.999L497.015 81.935C515.506 63.444 515.506 33.4626 497.015 14.9738C478.528 -3.5173 448.547 -3.5173 430.056 14.9738L255.992 189.037L81.9311 14.9738C63.4401 -3.5173 33.4587 -3.5173 14.9699 14.9738C-3.5212 33.4648 -3.5212 63.444 14.9699 81.935L189.033 255.999L14.9699 430.06C-3.51899 448.551 -3.51901 478.532 14.972 497.019Z" fill="#00000073"/>
<path d="M463.541 511.998C450.596 511.998 438.429 506.958 429.278 497.802L255.997 324.521L82.7179 497.802C73.5663 506.958 61.3974 511.998 48.4547 511.998C35.5121 511.998 23.3432 506.958 14.1916 497.802C5.04 488.65 0 476.483 0 463.543C0 450.6 5.04 438.434 14.1916 429.28L187.473 255.999L14.1916 82.7179C-4.69958 63.8245 -4.69958 33.085 14.1916 14.1916C23.3432 5.04 35.5099 0 48.4547 0C61.3974 0 73.5663 5.04 82.7179 14.1916L255.999 187.473L429.28 14.1916C438.434 5.04 450.6 0 463.543 0C476.483 0 488.65 5.04 497.802 14.1916C506.956 23.3432 511.993 35.5121 511.993 48.4547C511.993 61.3974 506.956 73.5663 497.802 82.7179L324.521 255.999L497.806 429.28C506.96 438.434 512 450.6 512 463.543C512 476.483 506.96 488.65 497.806 497.802C488.648 506.956 476.481 511.998 463.541 511.998ZM255.997 321.395L430.841 496.239C439.572 504.975 451.186 509.787 463.541 509.787C475.891 509.787 487.505 504.975 496.241 496.239C504.975 487.507 509.787 475.895 509.787 463.543C509.787 451.191 504.975 439.577 496.241 430.843L321.393 255.999L496.237 81.1551C504.971 72.4213 509.781 60.8072 509.781 48.4547C509.781 36.1023 504.971 24.4904 496.237 15.7566C487.505 7.02282 475.893 2.21272 463.541 2.21272C451.188 2.21272 439.574 7.02282 430.841 15.7566L255.997 190.6L81.1528 15.7566C72.4191 7.02282 60.8049 2.21272 48.4525 2.21272C36.1001 2.21272 24.4882 7.02282 15.7544 15.7566C-2.27463 33.7879 -2.27463 63.1238 15.7544 81.1551L190.598 255.999L15.7544 430.843C7.02063 439.577 2.21053 451.191 2.21053 463.543C2.21053 475.895 7.02063 487.507 15.7544 496.239C24.4904 504.975 36.1023 509.787 48.4547 509.787C60.8072 509.787 72.4191 504.975 81.1551 496.239L255.997 321.395Z" fill="#00000073"/>
</svg>