<svg width="16" height="14" viewBox="0 0 16 14" xmlns="http://www.w3.org/2000/svg">
<path fill-rule="evenodd" clip-rule="evenodd" d="M1.75 0.25H14.25C14.9401 0.25 15.5 0.816895 15.5 1.51562V9.95312C15.5 10.6519 14.9401 11.2188 14.25 11.2188H9.25L9.66667 12.4844H11.5417C11.888 12.4844 12.1667 12.7665 12.1667 13.1172C12.1667 13.4679 11.888 13.75 11.5417 13.75H4.45833C4.11198 13.75 3.83333 13.4679 3.83333 13.1172C3.83333 12.7665 4.11198 12.4844 4.45833 12.4844H6.33333L6.75 11.2188H1.75C1.0599 11.2188 0.5 10.6519 0.5 9.95312V1.51562C0.5 0.816895 1.0599 0.25 1.75 0.25ZM2.16667 9.53125H13.8333V1.9375H2.16667V9.53125Z" />
</svg>
