<svg width="50" height="50" viewBox="0 0 50 50" fill="none" xmlns="http://www.w3.org/2000/svg">
<path d="M22.495 5.9698C23.1833 5.35138 24.0759 5.00928 25.0012 5.00928C25.9266 5.00928 26.8192 5.35138 27.5075 5.9698L41.2575 18.3248C41.6484 18.6764 41.9611 19.1062 42.1751 19.5864C42.3892 20.0667 42.4999 20.5865 42.5 21.1123V38.7498C42.5 39.7444 42.1049 40.6982 41.4016 41.4014C40.6984 42.1047 39.7446 42.4998 38.75 42.4998H32.5C31.5054 42.4998 30.5516 42.1047 29.8483 41.4014C29.1451 40.6982 28.75 39.7444 28.75 38.7498V29.9998C28.75 29.6683 28.6183 29.3503 28.3839 29.1159C28.1495 28.8815 27.8315 28.7498 27.5 28.7498H22.5C22.1685 28.7498 21.8505 28.8815 21.6161 29.1159C21.3817 29.3503 21.25 29.6683 21.25 29.9998V38.7498C21.25 39.7444 20.8549 40.6982 20.1517 41.4014C19.4484 42.1047 18.4946 42.4998 17.5 42.4998H11.25C10.2554 42.4998 9.30161 42.1047 8.59835 41.4014C7.89509 40.6982 7.5 39.7444 7.5 38.7498V21.1123C7.5 20.0498 7.95 19.0373 8.745 18.3248L22.495 5.9698V5.9698ZM25.835 7.8298C25.6056 7.62389 25.3082 7.51 25 7.51C24.6918 7.51 24.3944 7.62389 24.165 7.8298L10.415 20.1848C10.2847 20.3017 10.1805 20.4447 10.109 20.6045C10.0375 20.7642 10.0004 20.9373 10 21.1123V38.7498C10 39.0813 10.1317 39.3993 10.3661 39.6337C10.6005 39.8681 10.9185 39.9998 11.25 39.9998H17.5C17.8315 39.9998 18.1495 39.8681 18.3839 39.6337C18.6183 39.3993 18.75 39.0813 18.75 38.7498V29.9998C18.75 29.0052 19.1451 28.0514 19.8483 27.3481C20.5516 26.6449 21.5054 26.2498 22.5 26.2498H27.5C28.4946 26.2498 29.4484 26.6449 30.1517 27.3481C30.8549 28.0514 31.25 29.0052 31.25 29.9998V38.7498C31.25 39.0813 31.3817 39.3993 31.6161 39.6337C31.8505 39.8681 32.1685 39.9998 32.5 39.9998H38.75C39.0815 39.9998 39.3995 39.8681 39.6339 39.6337C39.8683 39.3993 40 39.0813 40 38.7498V21.1123C39.9996 20.9373 39.9625 20.7642 39.891 20.6045C39.8195 20.4447 39.7153 20.3017 39.585 20.1848L25.835 7.8298Z" fill="black"/>
</svg>
