<svg width="50" height="50" viewBox="0 0 50 50" fill="none" xmlns="http://www.w3.org/2000/svg">
<path d="M5 10C5 8.67392 5.52678 7.40215 6.46447 6.46447C7.40215 5.52678 8.67392 5 10 5H25C26.3261 5 27.5979 5.52678 28.5355 6.46447C29.4732 7.40215 30 8.67392 30 10V12.5H40C41.3261 12.5 42.5979 13.0268 43.5355 13.9645C44.4732 14.9021 45 16.1739 45 17.5V42.5C45 43.163 44.7366 43.7989 44.2678 44.2678C43.7989 44.7366 43.163 45 42.5 45H7.5C6.83696 45 6.20107 44.7366 5.73223 44.2678C5.26339 43.7989 5 43.163 5 42.5V10ZM30 42.5H35V37.5H30V42.5ZM37.5 42.5H42.5V17.5C42.5 16.837 42.2366 16.2011 41.7678 15.7322C41.2989 15.2634 40.663 15 40 15H25C24.337 15 23.7011 15.2634 23.2322 15.7322C22.7634 16.2011 22.5 16.837 22.5 17.5V42.5H27.5V37.5C27.5 36.837 27.7634 36.2011 28.2322 35.7322C28.7011 35.2634 29.337 35 30 35H35C35.663 35 36.2989 35.2634 36.7678 35.7322C37.2366 36.2011 37.5 36.837 37.5 37.5V42.5ZM27.5 10C27.5 9.33696 27.2366 8.70107 26.7678 8.23223C26.2989 7.76339 25.663 7.5 25 7.5H10C9.33696 7.5 8.70107 7.76339 8.23223 8.23223C7.76339 8.70107 7.5 9.33696 7.5 10V42.5H20V17.5C20 16.1739 20.5268 14.9021 21.4645 13.9645C22.4021 13.0268 23.6739 12.5 25 12.5H27.5V10ZM30 21.875C30 22.3723 29.8025 22.8492 29.4508 23.2008C29.0992 23.5525 28.6223 23.75 28.125 23.75C27.6277 23.75 27.1508 23.5525 26.7992 23.2008C26.4475 22.8492 26.25 22.3723 26.25 21.875C26.25 21.3777 26.4475 20.9008 26.7992 20.5492C27.1508 20.1975 27.6277 20 28.125 20C28.6223 20 29.0992 20.1975 29.4508 20.5492C29.8025 20.9008 30 21.3777 30 21.875ZM13.125 23.75C13.6223 23.75 14.0992 23.5525 14.4508 23.2008C14.8025 22.8492 15 22.3723 15 21.875C15 21.3777 14.8025 20.9008 14.4508 20.5492C14.0992 20.1975 13.6223 20 13.125 20C12.6277 20 12.1508 20.1975 11.7992 20.5492C11.4475 20.9008 11.25 21.3777 11.25 21.875C11.25 22.3723 11.4475 22.8492 11.7992 23.2008C12.1508 23.5525 12.6277 23.75 13.125 23.75ZM15 14.375C15 14.8723 14.8025 15.3492 14.4508 15.7008C14.0992 16.0525 13.6223 16.25 13.125 16.25C12.6277 16.25 12.1508 16.0525 11.7992 15.7008C11.4475 15.3492 11.25 14.8723 11.25 14.375C11.25 13.8777 11.4475 13.4008 11.7992 13.0492C12.1508 12.6975 12.6277 12.5 13.125 12.5C13.6223 12.5 14.0992 12.6975 14.4508 13.0492C14.8025 13.4008 15 13.8777 15 14.375ZM28.125 31.25C28.3712 31.25 28.615 31.2015 28.8425 31.1073C29.07 31.013 29.2767 30.8749 29.4508 30.7008C29.6249 30.5267 29.763 30.32 29.8573 30.0925C29.9515 29.865 30 29.6212 30 29.375C30 29.1288 29.9515 28.885 29.8573 28.6575C29.763 28.43 29.6249 28.2233 29.4508 28.0492C29.2767 27.8751 29.07 27.737 28.8425 27.6427C28.615 27.5485 28.3712 27.5 28.125 27.5C27.6277 27.5 27.1508 27.6975 26.7992 28.0492C26.4475 28.4008 26.25 28.8777 26.25 29.375C26.25 29.8723 26.4475 30.3492 26.7992 30.7008C27.1508 31.0525 27.6277 31.25 28.125 31.25ZM15 36.875C15 37.3723 14.8025 37.8492 14.4508 38.2008C14.0992 38.5525 13.6223 38.75 13.125 38.75C12.6277 38.75 12.1508 38.5525 11.7992 38.2008C11.4475 37.8492 11.25 37.3723 11.25 36.875C11.25 36.3777 11.4475 35.9008 11.7992 35.5492C12.1508 35.1975 12.6277 35 13.125 35C13.6223 35 14.0992 35.1975 14.4508 35.5492C14.8025 35.9008 15 36.3777 15 36.875ZM13.125 31.25C13.3712 31.25 13.615 31.2015 13.8425 31.1073C14.07 31.013 14.2767 30.8749 14.4508 30.7008C14.6249 30.5267 14.763 30.32 14.8573 30.0925C14.9515 29.865 15 29.6212 15 29.375C15 29.1288 14.9515 28.885 14.8573 28.6575C14.763 28.43 14.6249 28.2233 14.4508 28.0492C14.2767 27.8751 14.07 27.737 13.8425 27.6427C13.615 27.5485 13.3712 27.5 13.125 27.5C12.6277 27.5 12.1508 27.6975 11.7992 28.0492C11.4475 28.4008 11.25 28.8777 11.25 29.375C11.25 29.8723 11.4475 30.3492 11.7992 30.7008C12.1508 31.0525 12.6277 31.25 13.125 31.25ZM38.75 21.875C38.75 22.3723 38.5525 22.8492 38.2008 23.2008C37.8492 23.5525 37.3723 23.75 36.875 23.75C36.3777 23.75 35.9008 23.5525 35.5492 23.2008C35.1975 22.8492 35 22.3723 35 21.875C35 21.3777 35.1975 20.9008 35.5492 20.5492C35.9008 20.1975 36.3777 20 36.875 20C37.3723 20 37.8492 20.1975 38.2008 20.5492C38.5525 20.9008 38.75 21.3777 38.75 21.875ZM36.875 31.25C37.1212 31.25 37.365 31.2015 37.5925 31.1073C37.82 31.013 38.0267 30.8749 38.2008 30.7008C38.3749 30.5267 38.513 30.32 38.6073 30.0925C38.7015 29.865 38.75 29.6212 38.75 29.375C38.75 29.1288 38.7015 28.885 38.6073 28.6575C38.513 28.43 38.3749 28.2233 38.2008 28.0492C38.0267 27.8751 37.82 27.737 37.5925 27.6427C37.365 27.5485 37.1212 27.5 36.875 27.5C36.3777 27.5 35.9008 27.6975 35.5492 28.0492C35.1975 28.4008 35 28.8777 35 29.375C35 29.8723 35.1975 30.3492 35.5492 30.7008C35.9008 31.0525 36.3777 31.25 36.875 31.25Z" fill="#1F867E"/>
</svg>
