<?xml version="1.0" encoding="iso-8859-1"?>
<!-- Generator: Adobe Illustrator 18.1.1, SVG Export Plug-In . SVG Version: 6.00 Build 0)  -->
<svg version="1.1" id="Capa_1" xmlns="http://www.w3.org/2000/svg" xmlns:xlink="http://www.w3.org/1999/xlink" x="0px" y="0px"
	 viewBox="0 0 261.075 261.075" xml:space="preserve">
<g>
	<g>
		<path d="M212.124,38.073H48.952v5.439v27.195H0v5.439v108.781h38.073h5.439v-5.439v-59.83h174.05v59.83
			v5.439h5.439h32.634h5.439V70.708h-48.952V38.073z M255.636,76.147v103.342h-32.634V114.22H38.073v5.439v59.83H5.439V76.147
			h43.513h157.733h5.439H255.636z M54.391,70.708V43.513h152.294v27.195H54.391z"/>
		<circle cx="237.508" cy="92.464" r="6.347"/>
		<path d="M212.124,223.002v-38.073v-5.439v-54.391H48.952v5.439v48.952v5.439v38.073h157.733H212.124z
			 M54.391,217.563v-32.634v-5.439v-48.952h152.294v48.952v5.439v32.634H54.391z"/>
		<rect x="70.708" y="168.611" width="87.025" height="5.439"/>
		<rect x="70.708" y="184.928" width="119.659" height="5.439"/>
		<rect x="70.708" y="201.245" width="119.659" height="5.439"/>
	</g>
</g>
<g>
</g>
<g>
</g>
<g>
</g>
<g>
</g>
<g>
</g>
<g>
</g>
<g>
</g>
<g>
</g>
<g>
</g>
<g>
</g>
<g>
</g>
<g>
</g>
<g>
</g>
<g>
</g>
<g>
</g>
</svg>
