<svg width="14" height="14" viewBox="0 0 14 14" xmlns="http://www.w3.org/2000/svg">
<path fill-rule="evenodd" clip-rule="evenodd" d="M7.00008 0.541626C3.43349 0.541626 0.541748 3.43441 0.541748 6.99996C0.541748 10.5676 3.43349 13.4583 7.00008 13.4583C10.5667 13.4583 13.4584 10.5676 13.4584 6.99996C13.4584 3.43441 10.5667 0.541626 7.00008 0.541626ZM7.00008 3.40621C7.60414 3.40621 8.09383 3.8959 8.09383 4.49996C8.09383 5.10402 7.60414 5.59371 7.00008 5.59371C6.39602 5.59371 5.90633 5.10402 5.90633 4.49996C5.90633 3.8959 6.39602 3.40621 7.00008 3.40621ZM8.14591 10.3333C8.31849 10.3333 8.45841 10.1934 8.45841 10.0208V9.39579C8.45841 9.22321 8.31849 9.08329 8.14591 9.08329H7.83341V6.47913C7.83341 6.30655 7.69349 6.16663 7.52091 6.16663H5.85425C5.68167 6.16663 5.54175 6.30655 5.54175 6.47913V7.10413C5.54175 7.2767 5.68167 7.41663 5.85425 7.41663H6.16675V9.08329H5.85425C5.68167 9.08329 5.54175 9.22321 5.54175 9.39579V10.0208C5.54175 10.1934 5.68167 10.3333 5.85425 10.3333H8.14591Z" />
</svg>
