<svg width="16" height="16" viewBox="0 0 16 16" fill="none" xmlns="http://www.w3.org/2000/svg">
    <g clip-path="url(#clip0_300_10475)">
        <path d="M15.334 2.66675V6.66675H11.334" stroke="#9B9B9B" stroke-width="1.5" stroke-linecap="round" stroke-linejoin="round"/>
        <path d="M0.666016 13.3333V9.33325H4.66602" stroke="#9B9B9B" stroke-width="1.5" stroke-linecap="round" stroke-linejoin="round"/>
        <path d="M15.3327 6.66655L12.2393 3.75989C11.5229 3.04303 10.6364 2.51936 9.66281 2.23774C8.68918 1.95612 7.66009 1.92572 6.67154 2.14939C5.68299 2.37306 4.76722 2.84351 4.00966 3.51683C3.67289 3.78895 2.73268 4.79986 1.66602 6.66655M0.666016 9.33322L3.75935 12.2399C4.47585 12.9567 5.36226 13.4804 6.33589 13.762C7.30951 14.0437 8.33861 14.0741 9.32716 13.8504C10.3157 13.6267 11.2315 13.1563 11.989 12.4829C12.7466 11.8096 13.3212 10.9554 13.6593 9.99989" stroke="#9B9B9B" stroke-width="1.5" stroke-linecap="round" stroke-linejoin="round"/>
    </g>
    <defs>
        <clipPath id="clip0_300_10475">
            <rect width="16" height="16" fill="white"/>
        </clipPath>
    </defs>
</svg>
