<svg width="17" height="16" viewBox="0 0 17 16" fill="none" xmlns="http://www.w3.org/2000/svg">
<g opacity="0.25">
<path fill-rule="evenodd" clip-rule="evenodd" d="M12.309 10.2647L14.8221 12.8608C15.0565 13.1055 15.0565 13.5013 14.8195 13.7461L14.1062 14.483C13.8718 14.7278 13.4886 14.7278 13.2517 14.483L10.7386 11.8869C10.6252 11.7697 10.5622 11.6109 10.5622 11.4442V11.0198C9.67237 11.7385 8.5532 12.1655 7.33573 12.1655C4.4395 12.1655 2.09277 9.74129 2.09277 6.74939C2.09277 3.75749 4.4395 1.33325 7.33573 1.33325C10.232 1.33325 12.5787 3.75749 12.5787 6.74939C12.5787 8.00708 12.1653 9.16322 11.4696 10.0824H11.8805C12.0418 10.0824 12.1955 10.1475 12.309 10.2647ZM4.10929 6.74937C4.10929 8.59294 5.55362 10.0824 7.33572 10.0824C9.12034 10.0824 10.5622 8.59034 10.5622 6.74937C10.5622 4.9058 9.11782 3.41636 7.33572 3.41636C5.5511 3.41636 4.10929 4.9084 4.10929 6.74937Z" fill="black"/>
</g>
</svg>
