<svg width="20" height="18" viewBox="0 0 20 18" xmlns="http://www.w3.org/2000/svg">
<path fill-rule="evenodd" clip-rule="evenodd" d="M6.11396 2.0083L3.29378 4.82861L2.68444 5.43799C2.50085 5.62158 2.18056 5.62158 1.99697 5.43799L0.137689 3.58643C-0.0458962 3.40283 -0.0458962 3.10596 0.137689 2.92236L0.75094 2.30908C0.934525 2.12549 1.23139 2.12549 1.41497 2.30908L2.30165 3.17236L4.78981 0.699707C4.97339 0.516113 5.27025 0.516113 5.45384 0.699707L6.11787 1.34424C6.29754 1.52783 6.29754 1.82471 6.11396 2.0083ZM19.375 4.46924H8.12558C7.78185 4.46924 7.50061 4.18799 7.50061 3.84424V2.28174C7.50061 1.93799 7.78185 1.65674 8.12558 1.65674H19.375C19.7188 1.65674 20 1.93799 20 2.28174V3.84424C20 4.18799 19.7188 4.46924 19.375 4.46924ZM19.375 10.7192H8.12558C7.78185 10.7192 7.50061 10.438 7.50061 10.0942V8.53174C7.50061 8.18799 7.78185 7.90674 8.12558 7.90674H19.375C19.7188 7.90674 20 8.18799 20 8.53174V10.0942C20 10.438 19.7188 10.7192 19.375 10.7192ZM8.12558 16.9692H19.375C19.7188 16.9692 20 16.688 20 16.3442V14.7817C20 14.438 19.7188 14.1567 19.375 14.1567H8.12558C7.78185 14.1567 7.50061 14.438 7.50061 14.7817V16.3442C7.50061 16.688 7.78185 16.9692 8.12558 16.9692ZM0.60251 15.563C0.60251 14.5278 1.46575 13.688 2.50085 13.688C3.53596 13.688 4.37576 14.5278 4.37576 15.563C4.37576 16.5981 3.53596 17.438 2.50085 17.438C1.46575 17.438 0.60251 16.5981 0.60251 15.563ZM3.29378 11.063L6.11396 8.24268C6.29754 8.05908 6.29754 7.76221 6.11787 7.58252L5.45384 6.91846C5.27025 6.73486 4.97339 6.73486 4.78981 6.91846L2.30165 9.40674L1.41497 8.54346C1.23139 8.35986 0.934525 8.35986 0.75094 8.54346L0.137689 9.15674C-0.0458962 9.34033 -0.0458962 9.63721 0.137689 9.8208L1.99307 11.6763C2.17665 11.8599 2.49695 11.8599 2.68053 11.6763L3.29378 11.063Z" />
</svg>
