<svg width="15" height="15" viewBox="0 0 15 15" xmlns="http://www.w3.org/2000/svg">
<g>
<path fill-rule="evenodd" clip-rule="evenodd" d="M13.125 3.78906C13.125 3.46545 12.8552 3.20312 12.5223 3.20312H10.6537L9.79952 1.81895C9.58168 1.46597 9.18933 1.25 8.76593 1.25H6.2341C5.8107 1.25 5.41834 1.46597 5.20051 1.81895L4.34626 3.20312H2.47768C2.14482 3.20312 1.875 3.46545 1.875 3.78906V4.08203C1.875 4.24382 2.00992 4.375 2.17634 4.375H2.67857V12.5781C2.67857 13.2253 3.21822 13.75 3.88393 13.75H11.1161C11.7818 13.75 12.3214 13.2253 12.3214 12.5781V4.375H12.8237C12.9901 4.375 13.125 4.24382 13.125 4.08203V3.78906ZM6.69643 5.83984V11.1133C6.69643 11.2751 6.56151 11.4062 6.39509 11.4062H5.79241C5.626 11.4062 5.49107 11.2751 5.49107 11.1133V5.83984C5.49107 5.67805 5.626 5.54688 5.79241 5.54688H6.39509C6.56151 5.54688 6.69643 5.67805 6.69643 5.83984ZM9.20759 5.54688H8.60491C8.4385 5.54688 8.30357 5.67805 8.30357 5.83984V11.1133C8.30357 11.2751 8.4385 11.4062 8.60491 11.4062H9.20759C9.37401 11.4062 9.50893 11.2751 9.50893 11.1133V5.83984C9.50893 5.67805 9.37401 5.54688 9.20759 5.54688ZM5.75196 3.20312H9.24807L8.80982 2.49299C8.78259 2.44887 8.73355 2.42187 8.68062 2.42188H6.31943C6.2665 2.42187 6.21746 2.44887 6.19023 2.49299L5.75196 3.20312ZM3.88392 4.375H11.1161V12.4316C11.1161 12.5125 11.0486 12.5781 10.9654 12.5781H4.03459C3.95138 12.5781 3.88392 12.5125 3.88392 12.4316V4.375Z"/>
<mask id="mask0" mask-type="alpha" maskUnits="userSpaceOnUse" x="1" y="1" width="13" height="13">
<path fill-rule="evenodd" clip-rule="evenodd" d="M13.125 3.78906C13.125 3.46545 12.8552 3.20312 12.5223 3.20312H10.6537L9.79952 1.81895C9.58168 1.46597 9.18933 1.25 8.76593 1.25H6.2341C5.8107 1.25 5.41834 1.46597 5.20051 1.81895L4.34626 3.20312H2.47768C2.14482 3.20312 1.875 3.46545 1.875 3.78906V4.08203C1.875 4.24382 2.00992 4.375 2.17634 4.375H2.67857V12.5781C2.67857 13.2253 3.21822 13.75 3.88393 13.75H11.1161C11.7818 13.75 12.3214 13.2253 12.3214 12.5781V4.375H12.8237C12.9901 4.375 13.125 4.24382 13.125 4.08203V3.78906ZM6.69643 5.83984V11.1133C6.69643 11.2751 6.56151 11.4062 6.39509 11.4062H5.79241C5.626 11.4062 5.49107 11.2751 5.49107 11.1133V5.83984C5.49107 5.67805 5.626 5.54688 5.79241 5.54688H6.39509C6.56151 5.54688 6.69643 5.67805 6.69643 5.83984ZM9.20759 5.54688H8.60491C8.4385 5.54688 8.30357 5.67805 8.30357 5.83984V11.1133C8.30357 11.2751 8.4385 11.4062 8.60491 11.4062H9.20759C9.37401 11.4062 9.50893 11.2751 9.50893 11.1133V5.83984C9.50893 5.67805 9.37401 5.54688 9.20759 5.54688ZM5.75196 3.20312H9.24807L8.80982 2.49299C8.78259 2.44887 8.73355 2.42187 8.68062 2.42188H6.31943C6.2665 2.42187 6.21746 2.44887 6.19023 2.49299L5.75196 3.20312ZM3.88392 4.375H11.1161V12.4316C11.1161 12.5125 11.0486 12.5781 10.9654 12.5781H4.03459C3.95138 12.5781 3.88392 12.5125 3.88392 12.4316V4.375Z"/>
</mask>
</g>
</svg>
