<svg width="24" height="14" viewBox="0 0 24 14" xmlns="http://www.w3.org/2000/svg">
<path fill-rule="evenodd" clip-rule="evenodd" d="M15.828 3.82812C15.828 1.71391 14.1141 0 11.9999 0C9.8857 0 8.17179 1.71391 8.17179 3.82812C8.17179 5.94234 9.8857 7.65625 11.9999 7.65625C14.1141 7.65625 15.828 5.94234 15.828 3.82812ZM14.6789 7.56035L16.1366 7.92479C17.3052 8.21693 18.1249 9.26686 18.1249 10.4714V12.6875C18.1249 13.4124 17.5373 14 16.8124 14H7.18742C6.46255 14 5.87492 13.4124 5.87492 12.6875V10.4714C5.87492 9.26686 6.69468 8.21693 7.86328 7.92479L9.32096 7.56035C10.7135 8.56197 12.8863 8.8497 14.6789 7.56035ZM19.5833 8.60417C20.9927 8.60417 22.1353 7.46156 22.1353 6.05208C22.1353 4.6426 20.9927 3.5 19.5833 3.5C18.1738 3.5 17.0312 4.6426 17.0312 6.05208C17.0312 7.46156 18.1738 8.60417 19.5833 8.60417ZM6.96867 6.05208C6.96867 7.46156 5.82606 8.60417 4.41659 8.60417C3.00711 8.60417 1.8645 7.46156 1.8645 6.05208C1.8645 4.6426 3.00711 3.5 4.41659 3.5C5.82606 3.5 6.96867 4.6426 6.96867 6.05208ZM5.29158 12.6875V10.4714C5.29158 9.86801 5.45904 9.29733 5.75472 8.80897C4.6614 9.34563 3.44559 9.12645 2.6306 8.54027L1.6588 8.78323C0.879762 8.97795 0.333252 9.67795 0.333252 10.4809V11.9583C0.333252 12.4416 0.724997 12.8333 1.20825 12.8333H5.29775C5.29384 12.7848 5.29178 12.7362 5.29158 12.6875ZM21.3692 8.5402L22.341 8.78316C23.1201 8.97792 23.6666 9.67792 23.6666 10.4809V11.9583C23.6666 12.4416 23.2748 12.8333 22.7916 12.8333H18.7021C18.7058 12.7851 18.7083 12.7366 18.7083 12.6875V10.4714C18.7083 9.86564 18.5394 9.29295 18.2416 8.80336C19.1493 9.2414 20.3511 9.2725 21.3692 8.5402Z" />
</svg>
